<svg xmlns="http://www.w3.org/2000/svg" width="18" height="18" viewBox="0 0 18 18" fill="none">
  <path d="M8.99984 9.0013H8.37484C8.37484 9.2703 8.547 9.50914 8.80217 9.59422L8.99984 9.0013ZM9.62484 4.83464C9.62484 4.48946 9.345 4.20964 8.99984 4.20964C8.65467 4.20964 8.37484 4.48946 8.37484 4.83464H9.62484ZM11.3022 10.4276C11.6297 10.5367 11.9836 10.3597 12.0928 10.0323C12.2019 9.7048 12.0249 9.35089 11.6975 9.24172L11.3022 10.4276ZM9.62484 9.0013V4.83464H8.37484V9.0013H9.62484ZM8.80217 9.59422L11.3022 10.4276L11.6975 9.24172L9.1975 8.40839L8.80217 9.59422ZM16.7082 9.0013C16.7082 13.2585 13.257 16.7096 8.99984 16.7096V17.9596C13.9474 17.9596 17.9582 13.9489 17.9582 9.0013H16.7082ZM8.99984 16.7096C4.74265 16.7096 1.2915 13.2585 1.2915 9.0013H0.0415039C0.0415039 13.9489 4.05229 17.9596 8.99984 17.9596V16.7096ZM1.2915 9.0013C1.2915 4.74411 4.74265 1.29297 8.99984 1.29297V0.0429688C4.05229 0.0429688 0.0415039 4.05375 0.0415039 9.0013H1.2915ZM8.99984 1.29297C13.257 1.29297 16.7082 4.74411 16.7082 9.0013H17.9582C17.9582 4.05375 13.9474 0.0429688 8.99984 0.0429688V1.29297Z" fill="#4B5565"/>
</svg>