<svg xmlns="http://www.w3.org/2000/svg" width="20" height="22" viewBox="0 0 20 22" fill="none">
  <path d="M7.3559 20C8.06104 20.6224 8.98728 21 10.0017 21C11.0162 21 11.9424 20.6224 12.6476 20M16.0017 7C16.0017 5.4087 15.3696 3.88258 14.2444 2.75736C13.1192 1.63214 11.593 1 10.0017 1C8.41043 1 6.88431 1.63214 5.75909 2.75736C4.63387 3.88258 4.00173 5.4087 4.00173 7C4.00173 10.0902 3.2222 12.206 2.35139 13.6054C1.61685 14.7859 1.24959 15.3761 1.26305 15.5408C1.27796 15.7231 1.31659 15.7926 1.4635 15.9016C1.59619 16 2.19432 16 3.39058 16H16.6129C17.8091 16 18.4073 16 18.54 15.9016C18.6869 15.7926 18.7255 15.7231 18.7404 15.5408C18.7539 15.3761 18.3866 14.7859 17.6521 13.6054C16.7813 12.206 16.0017 10.0902 16.0017 7Z" stroke="#364152" stroke-width="2" stroke-linecap="round" stroke-linejoin="round"/>
</svg>