<svg xmlns="http://www.w3.org/2000/svg" width="16" height="16" viewBox="0 0 16 16" fill="none">
  <path d="M12.7476 12.0507L12.4932 12.3451L12.7684 12.6203L15.0507 14.9028L15.3467 14.6068L15.0507 14.9028C15.0916 14.9437 15.0916 15.0099 15.0507 15.0507C15.0099 15.0916 14.9437 15.0916 14.9028 15.0507L14.6068 15.3467L14.9028 15.0507L12.6203 12.7684L12.3451 12.4932L12.0507 12.7476C10.8704 13.7673 9.33331 14.3837 7.65117 14.3837C3.93288 14.3837 0.918605 11.3695 0.918605 7.65117C0.918605 3.93288 3.93288 0.918605 7.65117 0.918605C11.3695 0.918605 14.3837 3.93288 14.3837 7.65117C14.3837 9.33331 13.7673 10.8704 12.7476 12.0507ZM1.12791 7.65117C1.12791 11.2539 4.04847 14.1744 7.65117 14.1744C11.2539 14.1744 14.1744 11.2539 14.1744 7.65117C14.1744 4.04847 11.2539 1.12791 7.65117 1.12791C4.04847 1.12791 1.12791 4.04847 1.12791 7.65117Z" fill="#202939" stroke="#9AA4B2" stroke-width="0.83721"/>
</svg>